<mxfile host="app.diagrams.net" modified="2022-11-23T03:40:42.126Z" agent="5.0 (Macintosh; Intel Mac OS X 10_15_7) AppleWebKit/537.36 (KHTML, like Gecko) Chrome/106.0.0.0 Safari/537.36" etag="1ekbizm6aSaroE9EhXnV" version="20.5.3" type="github">
  <diagram id="txqzmirnMWbz9pqVsxzo" name="第 1 页">
    <mxGraphModel dx="940" dy="606" grid="1" gridSize="10" guides="1" tooltips="1" connect="1" arrows="1" fold="1" page="1" pageScale="1" pageWidth="827" pageHeight="1169" math="0" shadow="0">
      <root>
        <mxCell id="0" />
        <mxCell id="1" parent="0" />
        <mxCell id="qwxN5I8w5ZcLogmW1cVn-8" value="BJS Region" style="points=[[0,0],[0.25,0],[0.5,0],[0.75,0],[1,0],[1,0.25],[1,0.5],[1,0.75],[1,1],[0.75,1],[0.5,1],[0.25,1],[0,1],[0,0.75],[0,0.5],[0,0.25]];outlineConnect=0;gradientColor=none;html=1;whiteSpace=wrap;fontSize=12;fontStyle=0;container=1;pointerEvents=0;collapsible=0;recursiveResize=0;shape=mxgraph.aws4.group;grIcon=mxgraph.aws4.group_region;strokeColor=#147EBA;fillColor=none;verticalAlign=top;align=left;spacingLeft=30;fontColor=#147EBA;dashed=1;" vertex="1" parent="1">
          <mxGeometry x="40" y="160" width="120" height="280" as="geometry" />
        </mxCell>
        <mxCell id="qwxN5I8w5ZcLogmW1cVn-9" value="VPC" style="points=[[0,0],[0.25,0],[0.5,0],[0.75,0],[1,0],[1,0.25],[1,0.5],[1,0.75],[1,1],[0.75,1],[0.5,1],[0.25,1],[0,1],[0,0.75],[0,0.5],[0,0.25]];outlineConnect=0;gradientColor=none;html=1;whiteSpace=wrap;fontSize=12;fontStyle=0;container=1;pointerEvents=0;collapsible=0;recursiveResize=0;shape=mxgraph.aws4.group;grIcon=mxgraph.aws4.group_vpc;strokeColor=#248814;fillColor=none;verticalAlign=top;align=left;spacingLeft=30;fontColor=#AAB7B8;dashed=0;" vertex="1" parent="qwxN5I8w5ZcLogmW1cVn-8">
          <mxGeometry x="10" y="40" width="80" height="200" as="geometry" />
        </mxCell>
        <mxCell id="qwxN5I8w5ZcLogmW1cVn-32" value="" style="outlineConnect=0;dashed=0;verticalLabelPosition=bottom;verticalAlign=top;align=center;html=1;shape=mxgraph.aws3.vpn_gateway;fillColor=#F58534;gradientColor=none;" vertex="1" parent="qwxN5I8w5ZcLogmW1cVn-9">
          <mxGeometry x="60" y="80" width="40" height="40" as="geometry" />
        </mxCell>
        <mxCell id="qwxN5I8w5ZcLogmW1cVn-33" style="edgeStyle=none;rounded=0;orthogonalLoop=1;jettySize=auto;html=1;entryX=1;entryY=0.5;entryDx=0;entryDy=0;entryPerimeter=0;dashed=1;strokeColor=#FF8000;strokeWidth=3;startArrow=classic;startFill=1;endArrow=classic;endFill=1;" edge="1" parent="1" source="qwxN5I8w5ZcLogmW1cVn-10" target="qwxN5I8w5ZcLogmW1cVn-32">
          <mxGeometry relative="1" as="geometry" />
        </mxCell>
        <mxCell id="qwxN5I8w5ZcLogmW1cVn-10" value="Direct Connect &lt;br&gt;Gateway" style="sketch=0;points=[[0,0,0],[0.25,0,0],[0.5,0,0],[0.75,0,0],[1,0,0],[0,1,0],[0.25,1,0],[0.5,1,0],[0.75,1,0],[1,1,0],[0,0.25,0],[0,0.5,0],[0,0.75,0],[1,0.25,0],[1,0.5,0],[1,0.75,0]];outlineConnect=0;fontColor=#232F3E;gradientColor=#945DF2;gradientDirection=north;fillColor=#5A30B5;strokeColor=#ffffff;dashed=0;verticalLabelPosition=bottom;verticalAlign=top;align=center;html=1;fontSize=12;fontStyle=0;aspect=fixed;shape=mxgraph.aws4.resourceIcon;resIcon=mxgraph.aws4.direct_connect;" vertex="1" parent="1">
          <mxGeometry x="200" y="280" width="40" height="40" as="geometry" />
        </mxCell>
        <mxCell id="qwxN5I8w5ZcLogmW1cVn-12" value="Direct Connect Location&lt;br&gt;酒仙桥" style="html=1;align=center;verticalAlign=top;rounded=1;absoluteArcSize=1;arcSize=20;dashed=1;" vertex="1" parent="1">
          <mxGeometry x="350" y="60" width="360" height="200" as="geometry" />
        </mxCell>
        <mxCell id="qwxN5I8w5ZcLogmW1cVn-15" value="" style="edgeStyle=orthogonalEdgeStyle;rounded=0;orthogonalLoop=1;jettySize=auto;html=1;endArrow=none;endFill=0;strokeWidth=3;strokeColor=#FF8000;" edge="1" parent="1" source="qwxN5I8w5ZcLogmW1cVn-13" target="qwxN5I8w5ZcLogmW1cVn-14">
          <mxGeometry relative="1" as="geometry" />
        </mxCell>
        <mxCell id="qwxN5I8w5ZcLogmW1cVn-29" style="edgeStyle=none;rounded=0;orthogonalLoop=1;jettySize=auto;html=1;entryX=1;entryY=0.5;entryDx=0;entryDy=0;entryPerimeter=0;dashed=1;strokeColor=#FF8000;strokeWidth=3;startArrow=classic;startFill=1;endArrow=classic;endFill=1;" edge="1" parent="1" source="qwxN5I8w5ZcLogmW1cVn-13" target="qwxN5I8w5ZcLogmW1cVn-10">
          <mxGeometry relative="1" as="geometry">
            <mxPoint x="410" y="170" as="sourcePoint" />
          </mxGeometry>
        </mxCell>
        <mxCell id="qwxN5I8w5ZcLogmW1cVn-13" value="AWS Router" style="sketch=0;outlineConnect=0;fontColor=#232F3E;gradientColor=none;fillColor=#4D27AA;strokeColor=none;dashed=0;verticalLabelPosition=bottom;verticalAlign=top;align=center;html=1;fontSize=12;fontStyle=0;aspect=fixed;pointerEvents=1;shape=mxgraph.aws4.router;" vertex="1" parent="1">
          <mxGeometry x="414" y="120" width="58" height="58" as="geometry" />
        </mxCell>
        <mxCell id="qwxN5I8w5ZcLogmW1cVn-14" value="ISP Router" style="sketch=0;outlineConnect=0;fontColor=#232F3E;gradientColor=none;fillColor=#4D27AA;strokeColor=none;dashed=0;verticalLabelPosition=bottom;verticalAlign=top;align=center;html=1;fontSize=12;fontStyle=0;aspect=fixed;pointerEvents=1;shape=mxgraph.aws4.router;" vertex="1" parent="1">
          <mxGeometry x="580" y="120" width="58" height="58" as="geometry" />
        </mxCell>
        <mxCell id="qwxN5I8w5ZcLogmW1cVn-16" value="Direct Connect Location&lt;br&gt;国富瑞" style="html=1;align=center;verticalAlign=top;rounded=1;absoluteArcSize=1;arcSize=20;dashed=1;" vertex="1" parent="1">
          <mxGeometry x="350" y="340" width="360" height="200" as="geometry" />
        </mxCell>
        <mxCell id="qwxN5I8w5ZcLogmW1cVn-17" value="" style="edgeStyle=orthogonalEdgeStyle;rounded=0;orthogonalLoop=1;jettySize=auto;html=1;endArrow=none;endFill=0;strokeWidth=3;strokeColor=#FF8000;" edge="1" parent="1" source="qwxN5I8w5ZcLogmW1cVn-18" target="qwxN5I8w5ZcLogmW1cVn-19">
          <mxGeometry relative="1" as="geometry" />
        </mxCell>
        <mxCell id="qwxN5I8w5ZcLogmW1cVn-30" style="edgeStyle=none;rounded=0;orthogonalLoop=1;jettySize=auto;html=1;dashed=1;strokeColor=#FF8000;strokeWidth=3;startArrow=classic;startFill=1;endArrow=classic;endFill=1;" edge="1" parent="1" source="qwxN5I8w5ZcLogmW1cVn-18">
          <mxGeometry relative="1" as="geometry">
            <mxPoint x="240" y="300" as="targetPoint" />
          </mxGeometry>
        </mxCell>
        <mxCell id="qwxN5I8w5ZcLogmW1cVn-18" value="AWS Router" style="sketch=0;outlineConnect=0;fontColor=#232F3E;gradientColor=none;fillColor=#4D27AA;strokeColor=none;dashed=0;verticalLabelPosition=bottom;verticalAlign=top;align=center;html=1;fontSize=12;fontStyle=0;aspect=fixed;pointerEvents=1;shape=mxgraph.aws4.router;" vertex="1" parent="1">
          <mxGeometry x="414" y="400" width="58" height="58" as="geometry" />
        </mxCell>
        <mxCell id="qwxN5I8w5ZcLogmW1cVn-28" style="edgeStyle=none;rounded=0;orthogonalLoop=1;jettySize=auto;html=1;dashed=1;strokeColor=#FF8000;strokeWidth=3;startArrow=classic;startFill=1;endArrow=classic;endFill=1;" edge="1" parent="1" target="qwxN5I8w5ZcLogmW1cVn-22">
          <mxGeometry relative="1" as="geometry">
            <mxPoint x="640" y="429" as="sourcePoint" />
          </mxGeometry>
        </mxCell>
        <mxCell id="qwxN5I8w5ZcLogmW1cVn-19" value="ISP Router" style="sketch=0;outlineConnect=0;fontColor=#232F3E;gradientColor=none;fillColor=#4D27AA;strokeColor=none;dashed=0;verticalLabelPosition=bottom;verticalAlign=top;align=center;html=1;fontSize=12;fontStyle=0;aspect=fixed;pointerEvents=1;shape=mxgraph.aws4.router;" vertex="1" parent="1">
          <mxGeometry x="580" y="400" width="58" height="58" as="geometry" />
        </mxCell>
        <mxCell id="qwxN5I8w5ZcLogmW1cVn-20" value="Corporate data center&lt;br&gt;亦庄康盛机房" style="points=[[0,0],[0.25,0],[0.5,0],[0.75,0],[1,0],[1,0.25],[1,0.5],[1,0.75],[1,1],[0.75,1],[0.5,1],[0.25,1],[0,1],[0,0.75],[0,0.5],[0,0.25]];outlineConnect=0;gradientColor=none;html=1;whiteSpace=wrap;fontSize=12;fontStyle=0;container=1;pointerEvents=0;collapsible=0;recursiveResize=0;shape=mxgraph.aws4.group;grIcon=mxgraph.aws4.group_corporate_data_center;strokeColor=#5A6C86;fillColor=none;verticalAlign=top;align=left;spacingLeft=30;fontColor=#5A6C86;dashed=0;" vertex="1" parent="1">
          <mxGeometry x="880" y="190" width="240" height="270" as="geometry" />
        </mxCell>
        <mxCell id="qwxN5I8w5ZcLogmW1cVn-22" value="Customer Router" style="sketch=0;outlineConnect=0;fontColor=#232F3E;gradientColor=none;fillColor=#4D27AA;strokeColor=none;dashed=0;verticalLabelPosition=bottom;verticalAlign=top;align=center;html=1;fontSize=12;fontStyle=0;aspect=fixed;pointerEvents=1;shape=mxgraph.aws4.customer_gateway;" vertex="1" parent="qwxN5I8w5ZcLogmW1cVn-20">
          <mxGeometry x="40" y="80" width="78" height="78" as="geometry" />
        </mxCell>
        <mxCell id="qwxN5I8w5ZcLogmW1cVn-27" style="rounded=0;orthogonalLoop=1;jettySize=auto;html=1;strokeColor=#FF8000;strokeWidth=3;endArrow=classic;endFill=1;startArrow=classic;startFill=1;dashed=1;" edge="1" parent="1" source="qwxN5I8w5ZcLogmW1cVn-22">
          <mxGeometry relative="1" as="geometry">
            <mxPoint x="640" y="150" as="targetPoint" />
          </mxGeometry>
        </mxCell>
        <mxCell id="qwxN5I8w5ZcLogmW1cVn-34" value="Private VIF" style="text;html=1;align=center;verticalAlign=middle;resizable=0;points=[];autosize=1;strokeColor=none;fillColor=none;rotation=324;" vertex="1" parent="1">
          <mxGeometry x="260" y="220" width="80" height="30" as="geometry" />
        </mxCell>
        <mxCell id="qwxN5I8w5ZcLogmW1cVn-35" value="Private VIF" style="text;html=1;align=center;verticalAlign=middle;resizable=0;points=[];autosize=1;strokeColor=none;fillColor=none;rotation=32;" vertex="1" parent="1">
          <mxGeometry x="260" y="350" width="80" height="30" as="geometry" />
        </mxCell>
        <mxCell id="qwxN5I8w5ZcLogmW1cVn-36" value="&lt;div&gt;&lt;ul&gt;&lt;li&gt;实现两条专线的高可用(主备冗余)，并且做到路由快速收敛&lt;/li&gt;&lt;li&gt;两条专线的virtual interfaces须关联在同一个DXGW上&lt;/li&gt;&lt;/ul&gt;&lt;/div&gt;" style="text;html=1;align=left;verticalAlign=middle;resizable=0;points=[];autosize=1;strokeColor=none;fillColor=none;fontStyle=1;spacingTop=0;horizontal=1;" vertex="1" parent="1">
          <mxGeometry x="680" y="555" width="370" height="60" as="geometry" />
        </mxCell>
      </root>
    </mxGraphModel>
  </diagram>
</mxfile>
